{
	"asset":{
		"generator":"Khronos glTF Blender I/O v3.6.27",
		"version":"2.0"
	},
	"scene":0,
	"scenes":[
		{
			"name":"Scene",
			"nodes":[
				7
			]
		}
	],
	"nodes":[
		{
			"mesh":0,
			"name":"Koi.002_Eyes_0"
		},
		{
			"mesh":1,
			"name":"Koi.002_red_0"
		},
		{
			"mesh":2,
			"name":"Koi.002_Silver_0"
		},
		{
			"mesh":3,
			"name":"Koi.002_White_0"
		},
		{
			"children":[
				0,
				1,
				2,
				3
			],
			"name":"Koi.002",
			"rotation":[
				-0.70710688829422,
				0,
				0,
				0.7071066498756409
			],
			"scale":[
				100,
				99.99999237060547,
				99.99999237060547
			],
			"translation":[
				787.827880859375,
				0.06669312715530396,
				55.120994567871094
			]
		},
		{
			"children":[
				4
			],
			"name":"RootNode"
		},
		{
			"children":[
				5
			],
			"name":"321aaaadc9ce4d4ba4294ea10dbf76b3.fbx",
			"rotation":[
				0.70710688829422,
				0,
				0,
				0.7071066498756409
			],
			"translation":[
				6.103515625e-05,
				0,
				0
			]
		},
		{
			"children":[
				6
			],
			"name":"Sketchfab_model",
			"rotation":[
				-0.70710688829422,
				0,
				0,
				0.7071066498756409
			],
			"translation":[
				-788.223876953125,
				0,
				0
			]
		}
	],
	"materials":[
		{
			"doubleSided":true,
			"name":"Eyes",
			"pbrMetallicRoughness":{
				"baseColorFactor":[
					0.04397439956665039,
					0.04397439956665039,
					0.04397439956665039,
					1
				],
				"metallicFactor":0,
				"roughnessFactor":0.6000000238418579
			}
		},
		{
			"doubleSided":true,
			"name":"material",
			"pbrMetallicRoughness":{
				"baseColorFactor":[
					0.8000029921531677,
					0.003211870091035962,
					0.018613100051879883,
					1
				],
				"metallicFactor":0,
				"roughnessFactor":0.6000000238418579
			}
		},
		{
			"doubleSided":true,
			"name":"Silver",
			"pbrMetallicRoughness":{
				"baseColorFactor":[
					0.7761623859405518,
					0.800000011920929,
					0.5814840197563171,
					1
				],
				"metallicFactor":0,
				"roughnessFactor":0.6000000238418579
			}
		},
		{
			"doubleSided":true,
			"name":"White",
			"pbrMetallicRoughness":{
				"baseColorFactor":[
					0.800000011920929,
					0.800000011920929,
					0.800000011920929,
					1
				],
				"metallicFactor":0,
				"roughnessFactor":0.6000000238418579
			}
		}
	],
	"meshes":[
		{
			"name":"Koi.002_Eyes_0",
			"primitives":[
				{
					"attributes":{
						"POSITION":0,
						"NORMAL":1,
						"TEXCOORD_0":2
					},
					"indices":3,
					"material":0
				}
			]
		},
		{
			"name":"Koi.002_red_0",
			"primitives":[
				{
					"attributes":{
						"POSITION":4,
						"NORMAL":5,
						"TEXCOORD_0":6
					},
					"indices":7,
					"material":1
				}
			]
		},
		{
			"name":"Koi.002_Silver_0",
			"primitives":[
				{
					"attributes":{
						"POSITION":8,
						"NORMAL":9,
						"TEXCOORD_0":10
					},
					"indices":11,
					"material":2
				}
			]
		},
		{
			"name":"Koi.002_White_0",
			"primitives":[
				{
					"attributes":{
						"POSITION":12,
						"NORMAL":13,
						"TEXCOORD_0":14
					},
					"indices":15,
					"material":3
				}
			]
		}
	],
	"accessors":[
		{
			"bufferView":0,
			"componentType":5126,
			"count":96,
			"max":[
				0.5008929371833801,
				-1.0867297649383545,
				0.18325582146644592
			],
			"min":[
				-0.5008929371833801,
				-1.2140486240386963,
				0.04142344743013382
			],
			"type":"VEC3"
		},
		{
			"bufferView":1,
			"componentType":5126,
			"count":96,
			"type":"VEC3"
		},
		{
			"bufferView":2,
			"componentType":5126,
			"count":96,
			"type":"VEC2"
		},
		{
			"bufferView":3,
			"componentType":5123,
			"count":96,
			"type":"SCALAR"
		},
		{
			"bufferView":4,
			"componentType":5126,
			"count":375,
			"max":[
				0.5427625775337219,
				2.1283304691314697,
				0.8335525989532471
			],
			"min":[
				-0.5427625775337219,
				-1.4530746936798096,
				-0.19701847434043884
			],
			"type":"VEC3"
		},
		{
			"bufferView":5,
			"componentType":5126,
			"count":375,
			"type":"VEC3"
		},
		{
			"bufferView":6,
			"componentType":5126,
			"count":375,
			"type":"VEC2"
		},
		{
			"bufferView":7,
			"componentType":5123,
			"count":375,
			"type":"SCALAR"
		},
		{
			"bufferView":8,
			"componentType":5126,
			"count":72,
			"max":[
				0.4899081587791443,
				-1.053711175918579,
				0.22517791390419006
			],
			"min":[
				-0.4899081587791443,
				-1.2589513063430786,
				0.007991231977939606
			],
			"type":"VEC3"
		},
		{
			"bufferView":9,
			"componentType":5126,
			"count":72,
			"type":"VEC3"
		},
		{
			"bufferView":10,
			"componentType":5126,
			"count":72,
			"type":"VEC2"
		},
		{
			"bufferView":11,
			"componentType":5123,
			"count":72,
			"type":"SCALAR"
		},
		{
			"bufferView":12,
			"componentType":5126,
			"count":2766,
			"max":[
				1.111748218536377,
				3.7355690002441406,
				1.342128038406372
			],
			"min":[
				-1.111748218536377,
				-1.8800402879714966,
				-0.852693498134613
			],
			"type":"VEC3"
		},
		{
			"bufferView":13,
			"componentType":5126,
			"count":2766,
			"type":"VEC3"
		},
		{
			"bufferView":14,
			"componentType":5126,
			"count":2766,
			"type":"VEC2"
		},
		{
			"bufferView":15,
			"componentType":5123,
			"count":2835,
			"type":"SCALAR"
		}
	],
	"bufferViews":[
		{
			"buffer":0,
			"byteLength":1152,
			"byteOffset":0,
			"target":34962
		},
		{
			"buffer":0,
			"byteLength":1152,
			"byteOffset":1152,
			"target":34962
		},
		{
			"buffer":0,
			"byteLength":768,
			"byteOffset":2304,
			"target":34962
		},
		{
			"buffer":0,
			"byteLength":192,
			"byteOffset":3072,
			"target":34963
		},
		{
			"buffer":0,
			"byteLength":4500,
			"byteOffset":3264,
			"target":34962
		},
		{
			"buffer":0,
			"byteLength":4500,
			"byteOffset":7764,
			"target":34962
		},
		{
			"buffer":0,
			"byteLength":3000,
			"byteOffset":12264,
			"target":34962
		},
		{
			"buffer":0,
			"byteLength":750,
			"byteOffset":15264,
			"target":34963
		},
		{
			"buffer":0,
			"byteLength":864,
			"byteOffset":16016,
			"target":34962
		},
		{
			"buffer":0,
			"byteLength":864,
			"byteOffset":16880,
			"target":34962
		},
		{
			"buffer":0,
			"byteLength":576,
			"byteOffset":17744,
			"target":34962
		},
		{
			"buffer":0,
			"byteLength":144,
			"byteOffset":18320,
			"target":34963
		},
		{
			"buffer":0,
			"byteLength":33192,
			"byteOffset":18464,
			"target":34962
		},
		{
			"buffer":0,
			"byteLength":33192,
			"byteOffset":51656,
			"target":34962
		},
		{
			"buffer":0,
			"byteLength":22128,
			"byteOffset":84848,
			"target":34962
		},
		{
			"buffer":0,
			"byteLength":5670,
			"byteOffset":106976,
			"target":34963
		}
	],
	"buffers":[
		{
			"byteLength":112648,
			"uri":"fish.bin"
		}
	]
}
